# xmcd CD database file
#
# Track frame offsets:
#	150
#	13690
#	40498
#	59474
#	74870
#	89803
#	101226
#	116204
#	131454
#	141448
#	158708
#	179053
#	200519
#	214765
#	225884
#	247905
#	258035
#	271488
#	292374
#	304590
#
# Disc length: 4177 seconds
#
# Revision: 0
# Processed by: cddbd v1.5.2PL0 Copyright (c) Steve Scherf et al.
# Submitted via: CDex 1.50
#
DISCID=3e104f14
DTITLE=Christian Redl and Vladko Kucan - Die Blumen des Bösen
DYEAR=2016
DGENRE=Jazz
TTITLE0=Einer Vorübergehenden
TTITLE1=Das Geschmeide
TTITLE2=An ein rothaariges Bettelmädchen
TTITLE3=Auf ein Mädchen von Malabar
TTITLE4=Herbstgesang
TTITLE5=Spleen
TTITLE6=Die Eulen
TTITLE7=Die tanzende Schlange
TTITLE8=Traurige Luna
TTITLE9=Ein Aas
TTITLE10=Der Tod der Armen
TTITLE11=Lethe
TTITLE12=Der Wein des Mörders
TTITLE13=Tagesende
TTITLE14=Die Verwandlungen des Vampirs
TTITLE15=Die Katze
TTITLE16=Die Abenddämmerung
TTITLE17=An eine Madonna
TTITLE18=Der fröhliche Tote
TTITLE19=Unterhaltung
EXTD=YEAR: 2016
EXTT0=
EXTT1=
EXTT2=
EXTT3=
EXTT4=
EXTT5=
EXTT6=
EXTT7=
EXTT8=
EXTT9=
EXTT10=
EXTT11=
EXTT12=
EXTT13=
EXTT14=
EXTT15=
EXTT16=
EXTT17=
EXTT18=
EXTT19=
PLAYORDER=
